# xmcd CD database file
#
# Track frame offsets:
#	150
#	18246
#	58850
#	92741
#	135064
#
# Disc length: 2279 seconds
#
# Revision: 2
# Processed by: cddbd v1.4b41PL1 Copyright (c) Steve Scherf et al.
# Submitted via: Feurio! 1.52 - http://www.feurio.com
#
DISCID=3308e505
DTITLE=DJ Tomcraft - Unbekannte CD #3308E50577DBB117
DYEAR=1900
DGENRE=
TTITLE0=Prosac
TTITLE1=Prosac
TTITLE2=Prosac
TTITLE3=Prosac
TTITLE4=Prosac
EXTD=
EXTT0=
EXTT1=
EXTT2=
EXTT3=
EXTT4=
PLAYORDER=
